<?xml version="1.0" encoding="utf-8"?>
<svg xmlns="http://www.w3.org/2000/svg" version="1.1" width="1210" height="160">
<title>first_ex_ordo_DM</title>
<rect width="50" height="25" x="5" y="75" fill="lightgreen"/><rect width="50" height="25" x="55" y="75" fill="lightgreen"/><rect width="50" height="25" x="105" y="25" fill="lightgreen"/><rect width="50" height="25" x="155" y="25" fill="lightgreen"/><rect width="50" height="25" x="205" y="125" fill="lightgreen"/><rect width="50" height="25" x="255" y="125" fill="lightgreen"/><rect width="50" height="25" x="305" y="25" fill="lightgreen"/><rect width="50" height="25" x="355" y="25" fill="lightgreen"/><rect width="50" height="25" x="405" y="75" fill="lightgreen"/><rect width="50" height="25" x="455" y="75" fill="lightgreen"/><rect width="50" height="25" x="505" y="125" fill="red"/><rect width="50" height="25" x="555" y="125" fill="red"/><rect width="50" height="25" x="605" y="25" fill="lightgreen"/><rect width="50" height="25" x="655" y="25" fill="lightgreen"/><rect width="50" height="25" x="705" y="125" fill="lightgreen"/><rect width="50" height="25" x="755" y="125" fill="lightgreen"/><rect width="50" height="25" x="805" y="75" fill="lightgreen"/><rect width="50" height="25" x="855" y="75" fill="lightgreen"/><rect width="50" height="25" x="905" y="25" fill="lightgreen"/><rect width="50" height="25" x="955" y="25" fill="lightgreen"/><rect width="50" height="25" x="1005" y="125" fill="red"/><rect width="50" height="25" x="1055" y="125" fill="red"/><line x1="5" y1="50" x2="5" y2="45" stroke="black"/>
<line x1="5" y1="50" x2="5" y2="25" stroke="black"/>
<line x1="-5" y1="35" x2="5" y2="25" stroke="black"/>
<line x1="15" y1="35" x2="5" y2="25" stroke="black"/>
<line x1="5" y1="100" x2="5" y2="95" stroke="black"/>
<line x1="5" y1="100" x2="5" y2="75" stroke="black"/>
<line x1="-5" y1="85" x2="5" y2="75" stroke="black"/>
<line x1="15" y1="85" x2="5" y2="75" stroke="black"/>
<line x1="5" y1="150" x2="5" y2="145" stroke="black"/>
<line x1="5" y1="150" x2="5" y2="125" stroke="black"/>
<line x1="-5" y1="135" x2="5" y2="125" stroke="black"/>
<line x1="15" y1="135" x2="5" y2="125" stroke="black"/>
<line x1="5" y1="50" x2="1205" y2="50" stroke="black"/>
<line x1="5" y1="100" x2="1205" y2="100" stroke="black"/>
<line x1="5" y1="150" x2="1205" y2="150" stroke="black"/>
<line x1="55" y1="50" x2="55" y2="45" stroke="black"/>
<line x1="55" y1="100" x2="55" y2="95" stroke="black"/>
<line x1="55" y1="150" x2="55" y2="145" stroke="black"/>
<line x1="5" y1="50" x2="1205" y2="50" stroke="black"/>
<line x1="5" y1="100" x2="1205" y2="100" stroke="black"/>
<line x1="5" y1="150" x2="1205" y2="150" stroke="black"/>
<line x1="105" y1="50" x2="105" y2="45" stroke="black"/>
<line x1="105" y1="100" x2="105" y2="95" stroke="black"/>
<line x1="105" y1="150" x2="105" y2="145" stroke="black"/>
<line x1="5" y1="50" x2="1205" y2="50" stroke="black"/>
<line x1="5" y1="100" x2="1205" y2="100" stroke="black"/>
<line x1="5" y1="150" x2="1205" y2="150" stroke="black"/>
<line x1="155" y1="50" x2="155" y2="45" stroke="black"/>
<line x1="155" y1="100" x2="155" y2="95" stroke="black"/>
<line x1="155" y1="150" x2="155" y2="145" stroke="black"/>
<line x1="5" y1="50" x2="1205" y2="50" stroke="black"/>
<line x1="5" y1="100" x2="1205" y2="100" stroke="black"/>
<line x1="5" y1="150" x2="1205" y2="150" stroke="black"/>
<line x1="205" y1="50" x2="205" y2="45" stroke="black"/>
<line x1="205" y1="100" x2="205" y2="95" stroke="black"/>
<line x1="205" y1="150" x2="205" y2="145" stroke="black"/>
<line x1="205" y1="100" x2="205" y2="75" stroke="black"/>
<line x1="205" y1="100" x2="195" y2="90" stroke="black"/>
<line x1="205" y1="100" x2="215" y2="90" stroke="black"/>
<line x1="5" y1="50" x2="1205" y2="50" stroke="black"/>
<line x1="5" y1="100" x2="1205" y2="100" stroke="black"/>
<line x1="5" y1="150" x2="1205" y2="150" stroke="black"/>
<line x1="255" y1="50" x2="255" y2="45" stroke="black"/>
<line x1="255" y1="100" x2="255" y2="95" stroke="black"/>
<line x1="255" y1="150" x2="255" y2="145" stroke="black"/>
<line x1="255" y1="50" x2="255" y2="25" stroke="black"/>
<line x1="255" y1="50" x2="245" y2="40" stroke="black"/>
<line x1="255" y1="50" x2="265" y2="40" stroke="black"/>
<line x1="5" y1="50" x2="1205" y2="50" stroke="black"/>
<line x1="5" y1="100" x2="1205" y2="100" stroke="black"/>
<line x1="5" y1="150" x2="1205" y2="150" stroke="black"/>
<line x1="305" y1="50" x2="305" y2="45" stroke="black"/>
<line x1="305" y1="50" x2="305" y2="25" stroke="black"/>
<line x1="295" y1="35" x2="305" y2="25" stroke="black"/>
<line x1="315" y1="35" x2="305" y2="25" stroke="black"/>
<line x1="305" y1="100" x2="305" y2="95" stroke="black"/>
<line x1="305" y1="150" x2="305" y2="145" stroke="black"/>
<line x1="5" y1="50" x2="1205" y2="50" stroke="black"/>
<line x1="5" y1="100" x2="1205" y2="100" stroke="black"/>
<line x1="5" y1="150" x2="1205" y2="150" stroke="black"/>
<line x1="355" y1="50" x2="355" y2="45" stroke="black"/>
<line x1="355" y1="100" x2="355" y2="95" stroke="black"/>
<line x1="355" y1="150" x2="355" y2="145" stroke="black"/>
<line x1="5" y1="50" x2="1205" y2="50" stroke="black"/>
<line x1="5" y1="100" x2="1205" y2="100" stroke="black"/>
<line x1="5" y1="150" x2="1205" y2="150" stroke="black"/>
<line x1="405" y1="50" x2="405" y2="45" stroke="black"/>
<line x1="405" y1="100" x2="405" y2="95" stroke="black"/>
<line x1="405" y1="100" x2="405" y2="75" stroke="black"/>
<line x1="395" y1="85" x2="405" y2="75" stroke="black"/>
<line x1="415" y1="85" x2="405" y2="75" stroke="black"/>
<line x1="405" y1="150" x2="405" y2="145" stroke="black"/>
<line x1="405" y1="150" x2="405" y2="125" stroke="black"/>
<line x1="405" y1="150" x2="395" y2="140" stroke="black"/>
<line x1="405" y1="150" x2="415" y2="140" stroke="black"/>
<line x1="5" y1="50" x2="1205" y2="50" stroke="black"/>
<line x1="5" y1="100" x2="1205" y2="100" stroke="black"/>
<line x1="5" y1="150" x2="1205" y2="150" stroke="black"/>
<line x1="455" y1="50" x2="455" y2="45" stroke="black"/>
<line x1="455" y1="100" x2="455" y2="95" stroke="black"/>
<line x1="455" y1="150" x2="455" y2="145" stroke="black"/>
<line x1="5" y1="50" x2="1205" y2="50" stroke="black"/>
<line x1="5" y1="100" x2="1205" y2="100" stroke="black"/>
<line x1="5" y1="150" x2="1205" y2="150" stroke="black"/>
<line x1="505" y1="50" x2="505" y2="45" stroke="black"/>
<line x1="505" y1="100" x2="505" y2="95" stroke="black"/>
<line x1="505" y1="150" x2="505" y2="145" stroke="black"/>
<line x1="5" y1="50" x2="1205" y2="50" stroke="black"/>
<line x1="5" y1="100" x2="1205" y2="100" stroke="black"/>
<line x1="5" y1="150" x2="1205" y2="150" stroke="black"/>
<line x1="555" y1="50" x2="555" y2="45" stroke="black"/>
<line x1="555" y1="100" x2="555" y2="95" stroke="black"/>
<line x1="555" y1="150" x2="555" y2="145" stroke="black"/>
<line x1="555" y1="50" x2="555" y2="25" stroke="black"/>
<line x1="555" y1="50" x2="545" y2="40" stroke="black"/>
<line x1="555" y1="50" x2="565" y2="40" stroke="black"/>
<line x1="5" y1="50" x2="1205" y2="50" stroke="black"/>
<line x1="5" y1="100" x2="1205" y2="100" stroke="black"/>
<line x1="5" y1="150" x2="1205" y2="150" stroke="black"/>
<line x1="605" y1="50" x2="605" y2="45" stroke="black"/>
<line x1="605" y1="50" x2="605" y2="25" stroke="black"/>
<line x1="595" y1="35" x2="605" y2="25" stroke="black"/>
<line x1="615" y1="35" x2="605" y2="25" stroke="black"/>
<line x1="605" y1="100" x2="605" y2="95" stroke="black"/>
<line x1="605" y1="150" x2="605" y2="145" stroke="black"/>
<line x1="605" y1="150" x2="605" y2="125" stroke="black"/>
<line x1="595" y1="135" x2="605" y2="125" stroke="black"/>
<line x1="615" y1="135" x2="605" y2="125" stroke="black"/>
<line x1="605" y1="100" x2="605" y2="75" stroke="black"/>
<line x1="605" y1="100" x2="595" y2="90" stroke="black"/>
<line x1="605" y1="100" x2="615" y2="90" stroke="black"/>
<line x1="5" y1="50" x2="1205" y2="50" stroke="black"/>
<line x1="5" y1="100" x2="1205" y2="100" stroke="black"/>
<line x1="5" y1="150" x2="1205" y2="150" stroke="black"/>
<line x1="655" y1="50" x2="655" y2="45" stroke="black"/>
<line x1="655" y1="100" x2="655" y2="95" stroke="black"/>
<line x1="655" y1="150" x2="655" y2="145" stroke="black"/>
<line x1="5" y1="50" x2="1205" y2="50" stroke="black"/>
<line x1="5" y1="100" x2="1205" y2="100" stroke="black"/>
<line x1="5" y1="150" x2="1205" y2="150" stroke="black"/>
<line x1="705" y1="50" x2="705" y2="45" stroke="black"/>
<line x1="705" y1="100" x2="705" y2="95" stroke="black"/>
<line x1="705" y1="150" x2="705" y2="145" stroke="black"/>
<line x1="5" y1="50" x2="1205" y2="50" stroke="black"/>
<line x1="5" y1="100" x2="1205" y2="100" stroke="black"/>
<line x1="5" y1="150" x2="1205" y2="150" stroke="black"/>
<line x1="755" y1="50" x2="755" y2="45" stroke="black"/>
<line x1="755" y1="100" x2="755" y2="95" stroke="black"/>
<line x1="755" y1="150" x2="755" y2="145" stroke="black"/>
<line x1="5" y1="50" x2="1205" y2="50" stroke="black"/>
<line x1="5" y1="100" x2="1205" y2="100" stroke="black"/>
<line x1="5" y1="150" x2="1205" y2="150" stroke="black"/>
<line x1="805" y1="50" x2="805" y2="45" stroke="black"/>
<line x1="805" y1="100" x2="805" y2="95" stroke="black"/>
<line x1="805" y1="100" x2="805" y2="75" stroke="black"/>
<line x1="795" y1="85" x2="805" y2="75" stroke="black"/>
<line x1="815" y1="85" x2="805" y2="75" stroke="black"/>
<line x1="805" y1="150" x2="805" y2="145" stroke="black"/>
<line x1="5" y1="50" x2="1205" y2="50" stroke="black"/>
<line x1="5" y1="100" x2="1205" y2="100" stroke="black"/>
<line x1="5" y1="150" x2="1205" y2="150" stroke="black"/>
<line x1="855" y1="50" x2="855" y2="45" stroke="black"/>
<line x1="855" y1="100" x2="855" y2="95" stroke="black"/>
<line x1="855" y1="150" x2="855" y2="145" stroke="black"/>
<line x1="855" y1="50" x2="855" y2="25" stroke="black"/>
<line x1="855" y1="50" x2="845" y2="40" stroke="black"/>
<line x1="855" y1="50" x2="865" y2="40" stroke="black"/>
<line x1="5" y1="50" x2="1205" y2="50" stroke="black"/>
<line x1="5" y1="100" x2="1205" y2="100" stroke="black"/>
<line x1="5" y1="150" x2="1205" y2="150" stroke="black"/>
<line x1="905" y1="50" x2="905" y2="45" stroke="black"/>
<line x1="905" y1="50" x2="905" y2="25" stroke="black"/>
<line x1="895" y1="35" x2="905" y2="25" stroke="black"/>
<line x1="915" y1="35" x2="905" y2="25" stroke="black"/>
<line x1="905" y1="100" x2="905" y2="95" stroke="black"/>
<line x1="905" y1="150" x2="905" y2="145" stroke="black"/>
<line x1="5" y1="50" x2="1205" y2="50" stroke="black"/>
<line x1="5" y1="100" x2="1205" y2="100" stroke="black"/>
<line x1="5" y1="150" x2="1205" y2="150" stroke="black"/>
<line x1="955" y1="50" x2="955" y2="45" stroke="black"/>
<line x1="955" y1="100" x2="955" y2="95" stroke="black"/>
<line x1="955" y1="150" x2="955" y2="145" stroke="black"/>
<line x1="5" y1="50" x2="1205" y2="50" stroke="black"/>
<line x1="5" y1="100" x2="1205" y2="100" stroke="black"/>
<line x1="5" y1="150" x2="1205" y2="150" stroke="black"/>
<line x1="1005" y1="50" x2="1005" y2="45" stroke="black"/>
<line x1="1005" y1="100" x2="1005" y2="95" stroke="black"/>
<line x1="1005" y1="150" x2="1005" y2="145" stroke="black"/>
<line x1="1005" y1="150" x2="1005" y2="125" stroke="black"/>
<line x1="1005" y1="150" x2="995" y2="140" stroke="black"/>
<line x1="1005" y1="150" x2="1015" y2="140" stroke="black"/>
<line x1="1005" y1="100" x2="1005" y2="75" stroke="black"/>
<line x1="1005" y1="100" x2="995" y2="90" stroke="black"/>
<line x1="1005" y1="100" x2="1015" y2="90" stroke="black"/>
<line x1="5" y1="50" x2="1205" y2="50" stroke="black"/>
<line x1="5" y1="100" x2="1205" y2="100" stroke="black"/>
<line x1="5" y1="150" x2="1205" y2="150" stroke="black"/>
<line x1="1055" y1="50" x2="1055" y2="45" stroke="black"/>
<line x1="1055" y1="100" x2="1055" y2="95" stroke="black"/>
<line x1="1055" y1="150" x2="1055" y2="145" stroke="black"/>
<line x1="5" y1="50" x2="1205" y2="50" stroke="black"/>
<line x1="5" y1="100" x2="1205" y2="100" stroke="black"/>
<line x1="5" y1="150" x2="1205" y2="150" stroke="black"/>
<line x1="1105" y1="50" x2="1105" y2="45" stroke="black"/>
<line x1="1105" y1="100" x2="1105" y2="95" stroke="black"/>
<line x1="1105" y1="150" x2="1105" y2="145" stroke="black"/>
<line x1="5" y1="50" x2="1205" y2="50" stroke="black"/>
<line x1="5" y1="100" x2="1205" y2="100" stroke="black"/>
<line x1="5" y1="150" x2="1205" y2="150" stroke="black"/>
<line x1="1155" y1="50" x2="1155" y2="45" stroke="black"/>
<line x1="1155" y1="100" x2="1155" y2="95" stroke="black"/>
<line x1="1155" y1="150" x2="1155" y2="145" stroke="black"/>
<line x1="1155" y1="50" x2="1155" y2="25" stroke="black"/>
<line x1="1155" y1="50" x2="1145" y2="40" stroke="black"/>
<line x1="1155" y1="50" x2="1165" y2="40" stroke="black"/>
<line x1="5" y1="50" x2="1205" y2="50" stroke="black"/>
<line x1="5" y1="100" x2="1205" y2="100" stroke="black"/>
<line x1="5" y1="150" x2="1205" y2="150" stroke="black"/>
<line x1="1205" y1="50" x2="1205" y2="45" stroke="black"/>
<line x1="1205" y1="50" x2="1205" y2="25" stroke="black"/>
<line x1="1195" y1="35" x2="1205" y2="25" stroke="black"/>
<line x1="1215" y1="35" x2="1205" y2="25" stroke="black"/>
<line x1="1205" y1="100" x2="1205" y2="95" stroke="black"/>
<line x1="1205" y1="100" x2="1205" y2="75" stroke="black"/>
<line x1="1195" y1="85" x2="1205" y2="75" stroke="black"/>
<line x1="1215" y1="85" x2="1205" y2="75" stroke="black"/>
<line x1="1205" y1="150" x2="1205" y2="145" stroke="black"/>
<line x1="1205" y1="150" x2="1205" y2="125" stroke="black"/>
<line x1="1195" y1="135" x2="1205" y2="125" stroke="black"/>
<line x1="1215" y1="135" x2="1205" y2="125" stroke="black"/>
<line x1="5" y1="50" x2="1205" y2="50" stroke="black"/>
<line x1="5" y1="100" x2="1205" y2="100" stroke="black"/>
<line x1="5" y1="150" x2="1205" y2="150" stroke="black"/>
</svg>